<svg width="32" height="32" viewBox="0 0 32 32" fill="none" xmlns="http://www.w3.org/2000/svg">
<path fill-rule="evenodd" clip-rule="evenodd" d="M16.1531 6C20.3633 6 23.9005 8.88114 24.9008 12.7793C28.3334 13.1706 31 16.0851 31 19.6224C31 23.4265 27.9162 26.5102 24.1122 26.5102H16.159L16.1531 26.5102L16.1471 26.5102H7.88776C4.08375 26.5102 1 23.4265 1 19.6224C1 17.0361 2.42552 14.7827 4.53372 13.6051C4.42582 13.2836 4.36735 12.9394 4.36735 12.5816C4.36735 10.8064 5.80643 9.36735 7.58163 9.36735C8.05151 9.36735 8.49785 9.46817 8.90018 9.64937C10.5459 7.43483 13.1819 6 16.1531 6Z" fill="#22BBEE"/>
<path fill-rule="evenodd" clip-rule="evenodd" d="M10.7827 19.1242C11.4339 18.7191 11.8673 17.9969 11.8673 17.1735C11.8673 15.9055 10.8394 14.8776 9.57143 14.8776C8.30343 14.8776 7.27551 15.9055 7.27551 17.1735C7.27551 17.9969 7.70898 18.7191 8.36017 19.1242C6.75459 19.8535 5.59184 21.9937 5.59184 24.5204C5.59184 25.0945 5.65187 25.6487 5.76349 26.1709C6.75796 26.5117 7.69607 26.5391 8.04082 26.5102H13.2984C13.4617 25.8912 13.551 25.2206 13.551 24.5204C13.551 21.9937 12.3883 19.8535 10.7827 19.1242Z" fill="white"/>
<path d="M9.77551 19.5016L9.87755 19.1633H9.26531L9.36735 19.5016V19.9527L8.95918 22.9979L9.46939 23.449H9.67347L10.1837 22.9979L9.77551 19.9527V19.5016Z" fill="#22BBEE"/>
<path fill-rule="evenodd" clip-rule="evenodd" d="M23.6398 19.1242C24.291 18.7191 24.7245 17.9969 24.7245 17.1735C24.7245 15.9055 23.6966 14.8776 22.4286 14.8776C21.1606 14.8776 20.1327 15.9055 20.1327 17.1735C20.1327 17.9969 20.5661 18.7191 21.2173 19.1242C19.6117 19.8535 18.449 21.9937 18.449 24.5204C18.449 25.2206 18.5383 25.8912 18.7016 26.5102H23.9592C24.3039 26.5391 25.242 26.5117 26.2365 26.1709C26.3481 25.6487 26.4082 25.0945 26.4082 24.5204C26.4082 21.9937 25.2454 19.8535 23.6398 19.1242Z" fill="white"/>
<path d="M22.6327 19.5016L22.7347 19.1633H22.1224L22.2245 19.5016V19.9527L21.8163 22.9979L22.3265 23.449H22.5306L23.0408 22.9979L22.6327 19.9527V19.5016Z" fill="#22BBEE"/>
<mask id="path-6-inside-1_1_2" fill="white">
<path fill-rule="evenodd" clip-rule="evenodd" d="M17.6478 18.3403C18.5074 17.8055 19.0796 16.8522 19.0796 15.7653C19.0796 14.0915 17.7227 12.7347 16.049 12.7347C14.3752 12.7347 13.0184 14.0915 13.0184 15.7653C13.0184 16.8522 13.5905 17.8055 14.4501 18.3403C12.3307 19.3029 10.7959 22.128 10.7959 25.4633C10.7959 25.8186 10.8133 26.1681 10.847 26.5102H21.2509C21.2846 26.1681 21.302 25.8186 21.302 25.4633C21.302 22.128 19.7672 19.3029 17.6478 18.3403Z"/>
</mask>
<path fill-rule="evenodd" clip-rule="evenodd" d="M17.6478 18.3403C18.5074 17.8055 19.0796 16.8522 19.0796 15.7653C19.0796 14.0915 17.7227 12.7347 16.049 12.7347C14.3752 12.7347 13.0184 14.0915 13.0184 15.7653C13.0184 16.8522 13.5905 17.8055 14.4501 18.3403C12.3307 19.3029 10.7959 22.128 10.7959 25.4633C10.7959 25.8186 10.8133 26.1681 10.847 26.5102H21.2509C21.2846 26.1681 21.302 25.8186 21.302 25.4633C21.302 22.128 19.7672 19.3029 17.6478 18.3403Z" fill="white"/>
<path d="M17.6478 18.3403L17.4894 18.0856L17.0135 18.3817L17.5238 18.6135L17.6478 18.3403ZM14.4501 18.3403L14.5742 18.6135L15.0845 18.3817L14.6086 18.0856L14.4501 18.3403ZM10.847 26.5102L10.5485 26.5396L10.5751 26.8102H10.847V26.5102ZM21.2509 26.5102V26.8102H21.5228L21.5495 26.5396L21.2509 26.5102ZM18.7796 15.7653C18.7796 16.7443 18.2646 17.6032 17.4894 18.0856L17.8063 18.595C18.7502 18.0077 19.3796 16.9601 19.3796 15.7653H18.7796ZM16.049 13.0347C17.5571 13.0347 18.7796 14.2572 18.7796 15.7653H19.3796C19.3796 13.9259 17.8884 12.4347 16.049 12.4347V13.0347ZM13.3184 15.7653C13.3184 14.2572 14.5409 13.0347 16.049 13.0347V12.4347C14.2095 12.4347 12.7184 13.9259 12.7184 15.7653H13.3184ZM14.6086 18.0856C13.8333 17.6032 13.3184 16.7443 13.3184 15.7653H12.7184C12.7184 16.9601 13.3477 18.0077 14.2916 18.595L14.6086 18.0856ZM14.326 18.0672C12.0628 19.0951 10.4959 22.0569 10.4959 25.4633H11.0959C11.0959 22.1992 12.5987 19.5107 14.5742 18.6135L14.326 18.0672ZM10.4959 25.4633C10.4959 25.8284 10.5138 26.1877 10.5485 26.5396L11.1456 26.4808C11.1129 26.1485 11.0959 25.8088 11.0959 25.4633H10.4959ZM10.847 26.8102H21.2509V26.2102H10.847V26.8102ZM21.5495 26.5396C21.5841 26.1877 21.602 25.8284 21.602 25.4633H21.002C21.002 25.8088 20.9851 26.1485 20.9524 26.4808L21.5495 26.5396ZM21.602 25.4633C21.602 22.0569 20.0352 19.0951 17.7719 18.0672L17.5238 18.6135C19.4993 19.5107 21.002 22.1992 21.002 25.4633H21.602Z" fill="#22BBEE" mask="url(#path-6-inside-1_1_2)"/>
<rect x="11.102" y="25.898" width="9.88775" height="0.612245" fill="white"/>
<path d="M16.3061 19.1552L16.4592 18.551H15.5408L15.6939 19.1552V19.9608L15.0816 25.3985L15.8469 26.2041H16.1531L16.9184 25.3985L16.3061 19.9608V19.1552Z" fill="#22BBEE"/>
</svg>
